HIERARCHY
ROOT Hips
{
	OFFSET 0.000000 0.000000 0.000000
	CHANNELS 6 Xposition Yposition Zposition Zrotation Yrotation Xrotation 
	JOINT LowerBack
	{
		OFFSET 0.000000 0.000000 0.000000
		CHANNELS 3 Zrotation Yrotation Xrotation
		JOINT Spine
		{
			OFFSET 0.028270 2.035590 -0.193380
			CHANNELS 3 Zrotation Yrotation Xrotation
			JOINT Spine1
			{
				OFFSET 0.056720 2.048850 -0.042750
				CHANNELS 3 Zrotation Yrotation Xrotation
				JOINT Neck
				{
					OFFSET 0.000000 0.000000 0.000000
					CHANNELS 3 Zrotation Yrotation Xrotation
					JOINT Neck1
					{
						OFFSET -0.054170 1.746240 0.172020
						CHANNELS 3 Zrotation Yrotation Xrotation
						JOINT Head
						{
							OFFSET 0.104070 1.761360 -0.123970
							CHANNELS 3 Zrotation Yrotation Xrotation
							End Site
							{
								OFFSET 0.000000 0.000000 0.000000
							}
						}
					}
				}
				JOINT LeftShoulder
				{
					OFFSET 0.000000 0.000000 0.000000
					CHANNELS 3 Zrotation Yrotation Xrotation
					JOINT LeftArm
					{
						OFFSET 3.362410 1.200890 -0.311210
						CHANNELS 3 Zrotation Yrotation Xrotation
						JOINT LeftForeArm
						{
							OFFSET 4.983000 -0.000000 -0.000000
							CHANNELS 3 Zrotation Yrotation Xrotation
							JOINT LeftHand
							{
								OFFSET 3.483560 -0.000000 -0.000000
								CHANNELS 3 Zrotation Yrotation Xrotation
								JOINT LeftFingerBase
								{
									OFFSET 0.000000 0.000000 0.000000
									CHANNELS 3 Zrotation Yrotation Xrotation
									JOINT LeftHandIndex1
									{
										OFFSET 0.715260 -0.000000 -0.000000
										CHANNELS 3 Zrotation Yrotation Xrotation
										End Site
										{
											OFFSET 0.000000 0.000000 0.000000
										}
									}
								}
								JOINT LThumb
								{
									OFFSET 0.000000 0.000000 0.000000
									CHANNELS 3 Zrotation Yrotation Xrotation
									End Site
									{
										OFFSET 0.000000 0.000000 0.000000
									}
								}
							}
						}
					}
				}
				JOINT RightShoulder
				{
					OFFSET 0.000000 0.000000 0.000000
					CHANNELS 3 Zrotation Yrotation Xrotation
					JOINT RightArm
					{
						OFFSET -3.136600 1.374050 -0.404650
						CHANNELS 3 Zrotation Yrotation Xrotation
						JOINT RightForeArm
						{
							OFFSET -5.241900 -0.000000 -0.000000
							CHANNELS 3 Zrotation Yrotation Xrotation
							JOINT RightHand
							{
								OFFSET -3.444170 -0.000000 -0.000000
								CHANNELS 3 Zrotation Yrotation Xrotation
								JOINT RightFingerBase
								{
									OFFSET 0.000000 0.000000 0.000000
									CHANNELS 3 Zrotation Yrotation Xrotation
									JOINT RightHandIndex1
									{
										OFFSET -0.622530 -0.000000 -0.000000
										CHANNELS 3 Zrotation Yrotation Xrotation
										End Site
										{
											OFFSET 0.000000 0.000000 0.000000
										}
									}
								}
								JOINT RThumb
								{
									OFFSET 0.000000 0.000000 0.000000
									CHANNELS 3 Zrotation Yrotation Xrotation
									End Site
									{
										OFFSET 0.000000 0.000000 0.000000
									}
								}
							}
						}
					}
				}
			}
		}
	}
}
}
MOTION
Frames: 15
Frame Time: 0.008333
2.845537 16.803913 -1.357257 137.873976 -80.811426 -131.692715 -0.885331 -1.644831 2.118244 -0.811521 -1.564478 -2.874479 -5.797047 -1.608874 -1.464316 9.456345 -10.359418 -8.248162 -2.849523 -0.212800 -0.178888 0.000000 0.000000 0.000000 -2.954696 5.686296 1.737103 -49.342918 16.964312 36.021585 -1.861983 -62.487105 -0.001127 -8.478337 -9.335972 0.695323 0.014291 0.005203 0.000000 0.000000 0.000000 0.000000 0.000000 0.000000 0.000000 13.613850 -5.354419 0.919523 57.121656 -7.779132 30.566502 1.229976 62.500680 -0.000056 -5.544744 6.435451 -0.325742 0.120604 -0.167342 0.000000 0.000000 0.000000 0.000000 0.000000 0.000000 0.000000 
2.867140 16.793915 -1.386741 136.809251 -80.594619 -130.896952 -0.984021 -1.677087 2.137428 -0.827575 -1.590477 -2.878868 -5.773629 -1.636272 -1.516520 9.411284 -10.252387 -8.185592 -2.870521 -0.215295 -0.161969 0.000000 0.000000 0.000000 -2.865954 5.451072 1.735357 -49.519363 17.167296 36.136787 -1.859613 -62.369526 -0.001557 -8.490338 -9.350606 0.697401 0.016129 0.004591 0.000000 0.000000 0.000000 0.000000 0.000000 0.000000 0.000000 13.665050 -5.262435 0.937697 56.974088 -7.642420 30.690993 1.232134 62.345493 -0.000077 -5.560765 6.432796 -0.326545 0.120482 -0.166797 0.000000 0.000000 0.000000 0.000000 0.000000 0.000000 0.000000 
2.889370 16.785147 -1.415338 135.561413 -80.390043 -129.910278 -1.102690 -1.716442 2.153256 -0.847598 -1.622596 -2.884489 -5.751408 -1.670002 -1.571479 9.366248 -10.136855 -8.117301 -2.891839 -0.217866 -0.143547 0.000000 0.000000 0.000000 -2.761635 5.184786 1.735364 -49.683660 17.379828 36.250105 -1.855377 -62.283438 -0.001987 -8.502683 -9.359358 0.699279 0.018122 0.004164 0.000000 0.000000 0.000000 0.000000 0.000000 0.000000 0.000000 13.716071 -5.166203 0.959381 56.833644 -7.476422 30.804201 1.234903 62.173241 -0.000102 -5.575278 6.428962 -0.327149 0.120367 -0.166332 0.000000 0.000000 0.000000 0.000000 0.000000 0.000000 0.000000 
2.912232 16.777647 -1.442799 134.199728 -80.201813 -128.801377 -1.230164 -1.760932 2.168048 -0.869255 -1.659426 -2.889706 -5.729074 -1.708489 -1.624015 9.320164 -10.020468 -8.048924 -2.912584 -0.220354 -0.125246 0.000000 0.000000 0.000000 -2.636056 4.906147 1.737542 -49.844963 17.566759 36.374848 -1.849995 -62.207241 -0.002371 -8.508228 -9.369488 0.700559 0.020111 0.004059 0.000000 0.000000 0.000000 0.000000 0.000000 0.000000 0.000000 13.764122 -5.073288 0.983700 56.697379 -7.265420 30.915368 1.238037 61.980660 -0.000148 -5.595093 6.419498 -0.327853 0.120349 -0.165897 0.000000 0.000000 0.000000 0.000000 0.000000 0.000000 0.000000 
2.935761 16.771568 -1.469248 132.733462 -80.030721 -127.579390 -1.364672 -1.809817 2.182951 -0.892349 -1.700328 -2.894409 -5.707065 -1.751081 -1.674405 9.272852 -9.902518 -7.980546 -2.932921 -0.222770 -0.107118 0.000000 0.000000 0.000000 -2.489109 4.614231 1.742356 -50.000539 17.723605 36.513875 -1.843637 -62.138179 -0.002703 -8.506998 -9.381416 0.701541 0.022070 0.004255 0.000000 0.000000 0.000000 0.000000 0.000000 0.000000 0.000000 13.809394 -4.982502 1.010701 56.568206 -7.012893 31.022383 1.241498 61.767509 -0.000217 -5.621898 6.402711 -0.328456 0.120440 -0.165486 0.000000 0.000000 0.000000 0.000000 0.000000 0.000000 0.000000 
2.959801 16.767043 -1.495092 131.116290 -79.872607 -126.195339 -1.515599 -1.864024 2.194093 -0.919322 -1.745858 -2.901369 -5.688566 -1.798569 -1.730756 9.225842 -9.768057 -7.904288 -2.954711 -0.225380 -0.086905 0.000000 0.000000 0.000000 -2.329084 4.283875 1.750323 -50.131028 17.892737 36.652168 -1.835682 -62.104127 -0.003043 -8.509739 -9.383579 0.702120 0.024159 0.004517 0.000000 0.000000 0.000000 0.000000 0.000000 0.000000 0.000000 13.857677 -4.877064 1.041487 56.454004 -6.753140 31.102165 1.245546 61.542819 -0.000300 -5.642979 6.377463 -0.328460 0.120454 -0.165134 0.000000 0.000000 0.000000 0.000000 0.000000 0.000000 0.000000 
2.984609 16.764061 -1.519818 129.445860 -79.734213 -124.750388 -1.663491 -1.919838 2.208446 -0.945913 -1.793204 -2.906883 -5.670275 -1.847791 -1.783177 9.175880 -9.634331 -7.831104 -2.975867 -0.227850 -0.067792 0.000000 0.000000 0.000000 -2.148245 3.950485 1.761895 -50.254361 18.007859 36.815407 -1.827242 -62.066113 -0.003311 -8.504105 -9.391897 0.702404 0.026117 0.005124 0.000000 0.000000 0.000000 0.000000 0.000000 0.000000 0.000000 13.900879 -4.774320 1.074361 56.347549 -6.452371 31.178027 1.249611 61.301506 -0.000422 -5.673833 6.343079 -0.328464 0.120593 -0.164819 0.000000 0.000000 0.000000 0.000000 0.000000 0.000000 0.000000 
3.010046 16.762685 -1.543825 127.681696 -79.609915 -123.202552 -1.817037 -1.977657 2.222586 -0.974396 -1.842415 -2.913569 -5.655135 -1.899016 -1.839476 9.124362 -9.487712 -7.753437 -2.998041 -0.230425 -0.047607 0.000000 0.000000 0.000000 -1.955955 3.590965 1.777377 -50.350837 18.110163 36.989267 -1.817669 -62.052443 -0.003566 -8.501534 -9.395898 0.702686 0.028112 0.005847 0.000000 0.000000 0.000000 0.000000 0.000000 0.000000 0.000000 13.944063 -4.658545 1.110177 56.255703 -6.144866 31.228494 1.253867 61.054891 -0.000569 -5.701546 6.300201 -0.327868 0.120671 -0.164597 0.000000 0.000000 0.000000 0.000000 0.000000 0.000000 0.000000 
3.036112 16.762905 -1.567007 125.861438 -79.499158 -121.590241 -1.970468 -2.035293 2.239361 -1.003704 -1.891582 -2.920752 -5.642905 -1.950263 -1.898813 9.070204 -9.330259 -7.672615 -3.020930 -0.233060 -0.026767 0.000000 0.000000 0.000000 -1.754237 3.210522 1.796931 -50.420012 18.189897 37.177428 -1.807144 -62.059242 -0.003798 -8.501757 -9.399056 0.703170 0.030110 0.006714 0.000000 0.000000 0.000000 0.000000 0.000000 0.000000 0.000000 13.985058 -4.530762 1.148725 56.177445 -5.829831 31.255731 1.258128 60.807093 -0.000745 -5.727899 6.250492 -0.326772 0.120708 -0.164503 0.000000 0.000000 0.000000 0.000000 0.000000 0.000000 0.000000 
3.062772 16.764648 -1.589336 124.012852 -79.399325 -119.941804 -2.121495 -2.090900 2.260973 -1.033481 -1.938961 -2.928107 -5.633647 -1.999763 -1.961303 9.012735 -9.162143 -7.588754 -3.044296 -0.235729 -0.005332 0.000000 0.000000 0.000000 -1.546312 2.811690 1.820622 -50.457972 18.245189 37.380518 -1.795691 -62.088503 -0.004010 -8.506471 -9.402282 0.704055 0.032113 0.007714 0.000000 0.000000 0.000000 0.000000 0.000000 0.000000 0.000000 14.021985 -4.389972 1.189836 56.113132 -5.510416 31.258863 1.262262 60.562947 -0.000950 -5.752503 6.196307 -0.325375 0.120693 -0.164585 0.000000 0.000000 0.000000 0.000000 0.000000 0.000000 0.000000 
3.090211 16.767776 -1.610811 122.166470 -79.307224 -118.291817 -2.268458 -2.142700 2.291344 -1.063266 -1.982789 -2.934098 -5.626357 -2.045630 -2.023698 8.951576 -8.987587 -7.505299 -3.067338 -0.238313 0.015650 0.000000 0.000000 0.000000 -1.331494 2.410955 1.848730 -50.464915 18.252443 37.608480 -1.783535 -62.131746 -0.004176 -8.511872 -9.409300 0.705242 0.034029 0.008920 0.000000 0.000000 0.000000 0.000000 0.000000 0.000000 0.000000 14.052250 -4.239533 1.232262 56.062274 -5.179028 31.242539 1.265914 60.324348 -0.001182 -5.777448 6.140905 -0.323881 0.120635 -0.164885 0.000000 0.000000 0.000000 0.000000 0.000000 0.000000 0.000000 
3.118155 16.772210 -1.631645 120.338548 -79.214814 -116.654378 -2.416607 -2.189221 2.329204 -1.094650 -2.021388 -2.940941 -5.623583 -2.086385 -2.093590 8.888212 -8.799436 -7.414470 -3.091095 -0.241013 0.038436 0.000000 0.000000 0.000000 -1.121304 1.979740 1.879866 -50.426871 18.266083 37.836391 -1.769936 -62.218377 -0.004371 -8.529326 -9.412849 0.707228 0.036093 0.010097 0.000000 0.000000 0.000000 0.000000 0.000000 0.000000 0.000000 14.079359 -4.070884 1.278234 56.026414 -4.855904 31.198542 1.269458 60.100234 -0.001436 -5.796882 6.085924 -0.322185 0.120487 -0.165461 0.000000 0.000000 0.000000 0.000000 0.000000 0.000000 0.000000 
3.147140 16.777645 -1.651522 118.591202 -79.123348 -115.100089 -2.558482 -2.228240 2.385505 -1.125165 -2.052698 -2.942717 -5.619902 -2.119502 -2.155782 8.820525 -8.611189 -7.330800 -3.112599 -0.243355 0.058665 0.000000 0.000000 0.000000 -0.897895 1.583991 1.916260 -50.365135 18.178191 38.110367 -1.756443 -62.293397 -0.004446 -8.535217 -9.431682 0.709319 0.037811 0.011687 0.000000 0.000000 0.000000 0.000000 0.000000 0.000000 0.000000 14.092768 -3.897693 1.322539 56.003478 -4.503514 31.144044 1.271692 59.882981 -0.001730 -5.823429 6.037349 -0.321190 0.120323 -0.166332 0.000000 0.000000 0.000000 0.000000 0.000000 0.000000 0.000000 
3.176522 16.784026 -1.671057 116.917832 -79.018267 -113.614432 -2.710050 -2.259592 2.450452 -1.159217 -2.075965 -2.945916 -5.621801 -2.144777 -2.228491 8.753584 -8.409143 -7.235864 -3.134698 -0.245865 0.081811 0.000000 0.000000 0.000000 -0.686547 1.147103 1.953856 -50.249106 18.130542 38.365168 -1.741074 -62.429774 -0.004597 -8.558331 -9.442610 0.712406 0.039811 0.013086 0.000000 0.000000 0.000000 0.000000 0.000000 0.000000 0.000000 14.105286 -3.704972 1.371379 55.994552 -4.162644 31.065622 1.273878 59.686371 -0.002039 -5.843355 5.992934 -0.319995 0.120081 -0.167543 0.000000 0.000000 0.000000 0.000000 0.000000 0.000000 0.000000 
3.206944 16.790987 -1.689859 115.378559 -78.902758 -112.265973 -2.863287 -2.281753 2.535364 -1.193819 -2.089845 -2.943474 -5.622064 -2.160304 -2.292405 8.684534 -8.205355 -7.147503 -3.153869 -0.247970 0.102517 0.000000 0.000000 0.000000 -0.461437 0.755236 1.996136 -50.108496 17.981449 38.664121 -1.725935 -62.553262 -0.004625 -8.565740 -9.470631 0.715400 0.041405 0.014887 0.000000 0.000000 0.000000 0.000000 0.000000 0.000000 0.000000 14.103480 -3.505343 1.417367 55.998921 -3.791461 30.979739 1.274401 59.498950 -0.002385 -5.870620 5.958988 -0.319699 0.119798 -0.169087 0.000000 0.000000 0.000000 0.000000 0.000000 0.000000 0.000000 
